<?xml version="1.0" encoding="UTF-8"?>
<svg version="1.1" xmlns="http://www.w3.org/2000/svg" width="862" height="221">
<path d="M0 0 C0.99 0.66 1.98 1.32 3 2 C5.41884602 2.2918111 5.41884602 2.2918111 8.11328125 2.23046875 C9.6147168 2.22756836 9.6147168 2.22756836 11.14648438 2.22460938 C12.19126953 2.21236328 13.23605469 2.20011719 14.3125 2.1875 C15.86227539 2.1865332 15.86227539 2.1865332 17.44335938 2.18554688 C22.42221016 2.15680431 27.09402844 1.91986967 32 1 C33.67099977 1.31088368 35.33871537 1.64080332 37 2 C37.99 1.67 38.98 1.34 40 1 C40 1.66 40 2.32 40 3 C41.23234375 2.96519531 42.4646875 2.93039063 43.734375 2.89453125 C57.40265414 2.62064002 69.80888402 3.14286008 81 12 C88.68474391 19.99343341 91.33600906 29.25115749 91.21875 40.15625 C90.88844517 44.45021279 89.7142358 48.07216405 88 52 C87.74476563 52.62777344 87.48953125 53.25554687 87.2265625 53.90234375 C84.8958788 58.78822656 81.3998807 61.07813648 76.828125 63.8359375 C76.22484375 64.22007813 75.6215625 64.60421875 75 65 C75 65.33 75 65.66 75 66 C75.680625 66.391875 76.36125 66.78375 77.0625 67.1875 C81.80101167 70.11126252 86.27372828 73.84464244 90 78 C90 78.66 90 79.32 90 80 C90.66 80.33 91.32 80.66 92 81 C93.31712518 83.89108976 94.11564237 86.95336481 95 90 C95.25652344 90.74507813 95.51304687 91.49015625 95.77734375 92.2578125 C98.29520043 101.04796303 95.4941712 110.40519816 91.859375 118.55859375 C90.70126451 120.53896269 89.4774577 122.24680507 88 124 C87.48566406 124.61101562 86.97132813 125.22203125 86.44140625 125.8515625 C82.23656877 130.4157048 77.53479011 133.27205864 72 136 C71.34 136.33 70.68 136.66 70 137 C65.37444336 137.79693641 60.89934212 138.13668237 56.21020508 138.17700195 C54.24830986 138.19625481 54.24830986 138.19625481 52.2467804 138.21589661 C50.83770124 138.22406025 49.42861776 138.2315047 48.01953125 138.23828125 C47.30279425 138.24235678 46.58605724 138.2464323 45.84760094 138.25063133 C42.06287306 138.27138378 38.27818042 138.28573891 34.4934082 138.29516602 C30.58929666 138.30628477 26.68574652 138.34077695 22.7818346 138.38033772 C19.77152947 138.40645712 16.76136026 138.41485299 13.75095177 138.41844749 C12.3112268 138.42331563 10.871508 138.43493625 9.4318943 138.45348549 C7.42193954 138.477801 5.41170806 138.47449962 3.40161133 138.4699707 C1.68788078 138.47877007 1.68788078 138.47877007 -0.06047058 138.48774719 C-3.66550717 137.88957442 -4.84372522 136.90797205 -7 134 C-7.42578125 130.43359375 -7.42578125 130.43359375 -7.3125 126.4375 C-7.30283203 125.76525391 -7.29316406 125.09300781 -7.28320312 124.40039062 C-7.21369086 121.35696236 -6.9678966 118.90368981 -6 116 C-6.87483915 113.83284443 -6.87483915 113.83284443 -8 112 C-7.505 111.505 -7.505 111.505 -7 111 C-6.93973141 107.84343266 -6.9797424 104.70270408 -7.0390625 101.546875 C-7.07571943 98.40659785 -7.00167721 96.00503164 -6 93 C-6.87914688 90.3430809 -6.87914688 90.3430809 -8 88 C-7.34 88 -6.68 88 -6 88 C-6.165 87.21625 -6.33 86.4325 -6.5 85.625 C-7.13003587 81.05723992 -7.07128203 76.6016509 -7 72 C-7 71.01 -7 70.02 -7 69 C-6.98839844 67.7109375 -6.97679687 66.421875 -6.96484375 65.09375 C-6.95555541 63.56250104 -6.94644721 62.03125099 -6.9375 60.5 C-6.92912109 59.72785156 -6.92074219 58.95570312 -6.91210938 58.16015625 C-6.89775198 54.84647052 -6.94460205 52.16619384 -8 49 C-7.34 49 -6.68 49 -6 49 C-6.24447876 47.26423706 -6.24447876 47.26423706 -6.49389648 45.4934082 C-7.00884311 41.35867804 -7.12967524 37.26896869 -7.09765625 33.10546875 C-7.0962413 32.39143387 -7.09482635 31.67739899 -7.09336853 30.94172668 C-7.08783504 28.6902726 -7.07530728 26.43892323 -7.0625 24.1875 C-7.05747531 22.65950667 -7.05291411 21.13151175 -7.04882812 19.60351562 C-7.03754876 15.73564832 -7.01892716 11.8678376 -7 8 C-7 7.01 -7 6.02 -7 5 C-4 3 -4 3 -1 3 C-0.67 2.01 -0.34 1.02 0 0 Z M23 26 C23.03552979 26.73637695 23.07105957 27.47275391 23.10766602 28.23144531 C23.26536222 31.57070847 23.4140288 34.9103145 23.5625 38.25 C23.64661133 39.98830078 23.64661133 39.98830078 23.73242188 41.76171875 C23.78076172 42.87675781 23.82910156 43.99179688 23.87890625 45.140625 C23.9260376 46.16704102 23.97316895 47.19345703 24.02172852 48.25097656 C24.00222257 50.71880683 23.72799029 52.65670465 23 55 C31.50692668 57.83564223 44.59387377 56.81165457 53 54 C56.66709306 51.90345993 59.81627525 49.14303662 61 45 C61.45334816 39.37848283 61.18933562 35.83899198 58 31 C53.33357643 26.6835582 50.04894511 25.87300965 43.80078125 25.90234375 C41.98803711 25.90717773 41.98803711 25.90717773 40.13867188 25.91210938 C38.87603516 25.92048828 37.61339844 25.92886719 36.3125 25.9375 C35.03826172 25.94201172 33.76402344 25.94652344 32.45117188 25.95117188 C29.30073436 25.96297127 26.15039051 25.97943403 23 26 Z M23 80 C23.07798828 80.6290625 23.15597656 81.258125 23.23632812 81.90625 C23.8630542 87.41811909 23.99787222 92.47814444 23.5 98 C22.84390563 102.65895678 22.84390563 102.65895678 24 107 C24.36141955 109.32914823 24.69699525 111.66253478 25 114 C34.65706282 116.3303723 50.42821276 116.94069126 59.15625 111.70703125 C62.59145295 108.96872398 65.0581635 106.395237 66 102 C66.47448068 96.11643952 66.02962463 92.11902092 63 87 C60.45224694 86.10613836 60.45224694 86.10613836 58 86 C57.505 85.01 57.505 85.01 57 84 C57.66 83.67 58.32 83.34 59 83 C53.87856083 80.04532356 48.52871821 79.87362021 42.7265625 79.90234375 C41.57285156 79.90556641 40.41914063 79.90878906 39.23046875 79.91210938 C37.44576172 79.92467773 37.44576172 79.92467773 35.625 79.9375 C33.80548828 79.94426758 33.80548828 79.94426758 31.94921875 79.95117188 C28.96609493 79.96291646 25.98307321 79.9793416 23 80 Z M23 112 C24 114 24 114 24 114 Z " fill="#FFFFFF" transform="translate(469,36)"/>
<path d="M0 0 C0.495 0.99 0.495 0.99 1 2 C1.72703125 1.90460937 2.4540625 1.80921875 3.203125 1.7109375 C10.99768835 0.85153693 19.77279381 0.38639691 27 4 C27.33 3.01 27.66 2.02 28 1 C28.495 2.485 28.495 2.485 29 4 C31.09049348 5.21605406 31.09049348 5.21605406 33.625 6.25 C42.66168393 10.59431168 47.26507232 16.78614949 51 26 C53.62574614 34.22845287 52.63993722 43.61442556 49.3984375 51.48828125 C45.8838555 57.80078467 40.67409706 62.33036118 34 65 C34.6290625 65.32871094 35.258125 65.65742187 35.90625 65.99609375 C45.27454906 71.20227199 52.09358214 77.55113399 55.37890625 87.9765625 C57.95492406 100.51642276 55.61364044 111.9884485 48.78515625 122.67578125 C42.16690138 131.29254635 32.48161694 135.21845917 22 137 C19.89528816 137.09920656 17.78791638 137.14807839 15.6809082 137.16113281 C14.42643387 137.17074036 13.17195953 137.1803479 11.87947083 137.19024658 C10.51990949 137.19509218 9.16034604 137.19937159 7.80078125 137.203125 C6.40024312 137.20888085 4.99970499 137.21463853 3.59916687 137.22039795 C0.6714949 137.23087406 -2.25614984 137.23674034 -5.18383789 137.24023438 C-8.94013494 137.24574334 -12.69607393 137.26983591 -16.45225811 137.29820633 C-19.34067357 137.31679051 -22.22900149 137.3220358 -25.11747169 137.32357025 C-26.50300895 137.32660173 -27.88854449 137.33464695 -29.27402306 137.34775543 C-31.20564012 137.36474219 -33.13740566 137.36110162 -35.0690918 137.35644531 C-36.16875778 137.36009094 -37.26842377 137.36373657 -38.40141296 137.36749268 C-39.25894669 137.24622009 -40.11648041 137.12494751 -41 137 C-43 134 -43 134 -43.5 131.375 C-43.665 130.59125 -43.83 129.8075 -44 129 C-44.66 128.67 -45.32 128.34 -46 128 C-45.67 124.37 -45.34 120.74 -45 117 C-44.67 117 -44.34 117 -44 117 C-43.94930141 110.37975331 -43.91426705 103.75955666 -43.89013672 97.13916016 C-43.88007747 94.88686248 -43.86642854 92.63457786 -43.84912109 90.38232422 C-43.82486969 87.14547502 -43.8135161 83.90879845 -43.8046875 80.671875 C-43.79436493 79.66445251 -43.78404236 78.65703003 -43.77340698 77.61907959 C-43.77325592 76.67840637 -43.77310486 75.73773315 -43.77294922 74.76855469 C-43.768508 73.94248718 -43.76406677 73.11641968 -43.75949097 72.26531982 C-44.02530474 69.76165831 -44.84091621 68.21141406 -46 66 C-46.1953125 62.765625 -46.1953125 62.765625 -46.125 59.25 C-46.09792969 57.49429688 -46.09792969 57.49429688 -46.0703125 55.703125 C-46.04710938 54.81109375 -46.02390625 53.9190625 -46 53 C-45.34 53.33 -44.68 53.66 -44 54 C-43.98786972 53.08917915 -43.98786972 53.08917915 -43.97549438 52.15995789 C-43.88954977 45.84966809 -43.79005074 39.5396961 -43.68261719 33.22973633 C-43.64429398 30.87367076 -43.60944706 28.517546 -43.578125 26.16137695 C-43.53254726 22.77794213 -43.47454048 19.39491592 -43.4140625 16.01171875 C-43.40251129 14.95538742 -43.39096008 13.89905609 -43.37905884 12.81071472 C-43.35918915 11.82992447 -43.33931946 10.84913422 -43.31884766 9.83862305 C-43.30552399 8.97480515 -43.29220032 8.11098724 -43.2784729 7.22099304 C-43 5 -43 5 -41 2 C-37.18800121 0.38205296 -32.84053912 0.89326304 -28.76953125 0.9375 C-27.9785051 0.94128662 -27.18747894 0.94507324 -26.3724823 0.94897461 C-23.85243231 0.96116958 -21.33249787 0.97981118 -18.8125 1 C-15.48568043 1.02648591 -12.15891593 1.0465163 -8.83203125 1.0625 C-8.0622847 1.07079834 -7.29253815 1.07909668 -6.49946594 1.08764648 C-4.6660978 1.09620308 -2.8326118 1.05334726 -1 1 C-0.67 0.67 -0.34 0.34 0 0 Z M-15 25 C-15 34.57 -15 44.14 -15 54 C-5.63287345 57.12237552 8.02095425 55.72956437 16.875 51.6875 C20.16192114 49.07729792 21.73112043 46.9313423 22.3203125 42.69921875 C22.59716996 36.6175832 21.87830481 32.75092339 18 28 C11.05291338 24.51022518 4.65639325 24.64281398 -3 24.8125 C-6.96 24.874375 -10.92 24.93625 -15 25 Z M-15 79 C-15.024727 83.35994067 -15.04287281 87.71984414 -15.05493164 92.07983398 C-15.05995903 93.56291413 -15.06678185 95.04598933 -15.07543945 96.52905273 C-15.08757482 98.66130801 -15.09324425 100.79349773 -15.09765625 102.92578125 C-15.10289307 104.20880127 -15.10812988 105.49182129 -15.11352539 106.8137207 C-15.14927176 110.0225974 -15.14927176 110.0225974 -14 113 C-2.62237579 115.16716652 10.96090124 115.51954938 21.5 110.25 C25.04688099 107.05780711 26.71837989 104.40159375 27.28125 99.6015625 C27.47047108 94.3506774 27.17350533 90.36356983 24 86 C17.863421 80.35487863 13.14338719 78.86136262 4.82421875 78.90234375 C3.08881836 78.90717773 3.08881836 78.90717773 1.31835938 78.91210938 C0.12017578 78.92048828 -1.07800781 78.92886719 -2.3125 78.9375 C-4.1387793 78.94426758 -4.1387793 78.94426758 -6.00195312 78.95117188 C-9.00135226 78.96293422 -12.00065089 78.97937174 -15 79 Z " fill="#FFFFFF" transform="translate(76,37)"/>
<path d="M0 0 C0.62648438 0.58652344 1.25296875 1.17304687 1.8984375 1.77734375 C12.37503759 12.58548182 12.15550572 26.65584692 12.1328125 40.80078125 C12.13376923 42.11410934 12.13472595 43.42743744 12.13571167 44.78056335 C12.13717781 47.54488313 12.13506744 50.30917036 12.13037109 53.07348633 C12.12464636 56.61535607 12.1279769 60.15715048 12.13394356 63.69901752 C12.1384214 67.08711152 12.13528966 70.47518512 12.1328125 73.86328125 C12.13483673 75.13512772 12.13686096 76.40697418 12.13894653 77.71736145 C12.13421829 79.48015694 12.13421829 79.48015694 12.12939453 81.27856445 C12.12859894 82.31366653 12.12780334 83.34876862 12.12698364 84.41523743 C12 87 12 87 11 90 C7.24179398 91.87910301 2.76142185 91.31433248 -1.375 91.375 C-2.3340625 91.41238281 -3.293125 91.44976562 -4.28125 91.48828125 C-11.39042974 91.57739353 -11.39042974 91.57739353 -14.6640625 88.4765625 C-15.10492188 87.65929687 -15.54578125 86.84203125 -16 86 C-15.34 86 -14.68 86 -14 86 C-14.33 85.01 -14.66 84.02 -15 83 C-15.54527344 83.47050781 -16.09054687 83.94101563 -16.65234375 84.42578125 C-24.40790073 90.82908727 -31.14321618 92.96244381 -41 94 C-41.99 94.495 -41.99 94.495 -43 95 C-56.09697216 94.02914887 -65.28034054 90.87373203 -74 81 C-74.66 80.34 -75.32 79.68 -76 79 C-76.66 79 -77.32 79 -78 79 C-78 78.34 -78 77.68 -78 77 C-77.34 77 -76.68 77 -76 77 C-76.309375 76.34 -76.61875 75.68 -76.9375 75 C-79.9762315 66.42005225 -79.3716127 57.63258017 -75.84375 49.25390625 C-70.7346197 39.92974345 -63.50567013 35.06477212 -53.578125 31.7265625 C-47.57518617 30.03482519 -42.02446845 29.81687771 -35.8125 29.8125 C-34.91724609 29.80025391 -34.02199219 29.78800781 -33.09960938 29.77539062 C-26.84491562 29.76184255 -21.08117628 30.55014506 -15 32 C-17.51292433 22.77367535 -17.51292433 22.77367535 -23.9375 16.1875 C-29.72642701 14.00276635 -36.70377104 14.28886022 -42.6796875 15.578125 C-45 16 -45 16 -48 15 C-50.6746203 15.72190892 -50.6746203 15.72190892 -53.5 16.875 C-54.4590625 17.24367188 -55.418125 17.61234375 -56.40625 17.9921875 C-57.2621875 18.32476562 -58.118125 18.65734375 -59 19 C-59.99 19.33 -60.98 19.66 -62 20 C-62.33 20.66 -62.66 21.32 -63 22 C-65.375 21.6875 -65.375 21.6875 -68 21 C-70.68729731 16.96905403 -70.43976859 13.8606943 -70.5 9.125 C-70.54125 8.32191406 -70.5825 7.51882812 -70.625 6.69140625 C-70.68373661 2.23476609 -70.49230151 0.56111785 -67.45703125 -2.8984375 C-63.96655646 -5.2973006 -60.23645582 -6.60236296 -56.1875 -7.75 C-55.47319824 -7.95898926 -54.75889648 -8.16797852 -54.02294922 -8.38330078 C-36.80425826 -13.27323647 -13.63777927 -12.94687856 0 0 Z M-47.9375 53.6875 C-50.44574794 57.7158982 -51.00300392 60.38066083 -50 65 C-47.9052948 69.03978861 -46.24527791 71.37571975 -42 73 C-34.09317186 73.91029079 -26.73463507 73.52369656 -20 69 C-15.42744993 64.19882243 -14.59784532 60.83157021 -14.64453125 54.3515625 C-14.78137328 51.75319748 -14.78137328 51.75319748 -17.3125 49.9375 C-27.71423462 46.30898792 -39.51739856 45.98400294 -47.9375 53.6875 Z " fill="#FFFFFF" transform="translate(284,83)"/>
<path d="M0 0 C1.375 1.53515625 1.375 1.53515625 2.375 4.53515625 C3.38627402 6.9832821 4.40827192 9.42655473 5.4375 11.8671875 C7.24154799 17.0012074 7.50292053 22.01853872 7.52026367 27.42675781 C7.52362228 28.08766418 7.5269809 28.74857056 7.53044128 29.42950439 C7.53987376 31.59494955 7.54188977 33.76031689 7.54296875 35.92578125 C7.54618418 37.43699169 7.54954847 38.94820183 7.55305481 40.45941162 C7.55902493 43.61650312 7.56089664 46.77356732 7.56030273 49.93066406 C7.56020065 53.98167075 7.5739094 58.03250397 7.59107494 62.08346939 C7.60216842 65.19920666 7.60422285 68.31490143 7.60369301 71.43065643 C7.60487496 72.92503208 7.60930874 74.41940876 7.61702538 75.91376495 C7.62678187 77.99634716 7.62396594 80.07854491 7.61791992 82.16113281 C7.61934494 83.34660706 7.62076996 84.5320813 7.62223816 85.753479 C7.375 88.53515625 7.375 88.53515625 5.375 90.53515625 C0.02457676 91.65690953 -5.02845144 91.56511986 -10.4375 91.22265625 C-11.5812207 91.16948242 -11.5812207 91.16948242 -12.74804688 91.11523438 C-18.3784657 90.78169055 -18.3784657 90.78169055 -20.625 88.53515625 C-20.89001465 85.96107483 -20.89001465 85.96107483 -20.91210938 82.66430664 C-20.92552368 81.43285416 -20.93893799 80.20140167 -20.95275879 78.93263245 C-20.95532181 78.27283449 -20.95788483 77.61303654 -20.96052551 76.93324471 C-20.96880313 74.86956765 -20.98929666 72.80633562 -21.01306152 70.74278259 C-21.06133074 66.36113969 -21.09423585 61.97945245 -21.125 57.59765625 C-21.1606526 52.52402824 -21.20256569 47.4506172 -21.26094055 42.37719536 C-21.28101963 40.34364334 -21.28933098 38.31025711 -21.29724121 36.27662659 C-21.31065552 35.04202194 -21.32406982 33.8074173 -21.33789062 32.53540039 C-21.34518188 31.4466713 -21.35247314 30.3579422 -21.35998535 29.23622131 C-21.43276533 26.31347165 -21.43276533 26.31347165 -23.625 23.53515625 C-24.058125 22.57609375 -24.058125 22.57609375 -24.5 21.59765625 C-26.502081 17.92717442 -28.66204335 15.8561418 -32.625 14.53515625 C-38.76356248 14.03404911 -44.53991604 13.66080657 -49.625 17.53515625 C-54.38045087 22.00553922 -55.01220625 27.17409512 -55.265625 33.4453125 C-55.30293228 34.22576935 -55.34023956 35.0062262 -55.37867737 35.81033325 C-55.84351621 46.81658728 -55.65431463 57.83851064 -55.52905273 68.85058594 C-55.49896412 71.6907614 -55.48114907 74.53081065 -55.46484375 77.37109375 C-55.45138412 78.23455414 -55.4379245 79.09801453 -55.42405701 79.98764038 C-55.42067825 80.79013214 -55.4172995 81.5926239 -55.41381836 82.41943359 C-55.40263222 83.47050797 -55.40263222 83.47050797 -55.39122009 84.54281616 C-55.66554059 86.88065491 -56.47234667 88.4994811 -57.625 90.53515625 C-60.64538922 90.75844177 -63.66531711 90.96417092 -66.6875 91.16015625 C-67.53505859 91.22460938 -68.38261719 91.2890625 -69.25585938 91.35546875 C-74.54995314 91.68251701 -78.63326081 91.37805598 -83.625 89.53515625 C-85.73941873 87.42073752 -84.78241848 82.67256447 -84.78613281 79.74853516 C-84.79109772 78.8266188 -84.79606262 77.90470245 -84.80117798 76.95484924 C-84.81584033 73.89046495 -84.82260834 70.82613242 -84.828125 67.76171875 C-84.83387309 65.64041135 -84.83963086 63.51910398 -84.84539795 61.39779663 C-84.85591953 56.94390622 -84.86175462 52.49003392 -84.86523438 48.03613281 C-84.87072162 42.32035898 -84.89474977 36.60482307 -84.92320633 30.88912392 C-84.94180167 26.50545547 -84.94703665 22.12184467 -84.94857025 17.73814011 C-84.95160432 15.63054478 -84.95965808 13.52295064 -84.97275543 11.41539383 C-84.98975116 8.47026567 -84.98795154 5.52572328 -84.98144531 2.58056641 C-84.9906601 1.70460312 -84.99987488 0.82863983 -85.0093689 -0.0738678 C-84.96797367 -6.03526683 -84.96797367 -6.03526683 -83.24755478 -8.19010353 C-80.98738387 -9.96577903 -79.43864306 -9.82277489 -76.58984375 -9.79296875 C-75.12901367 -9.78523438 -75.12901367 -9.78523438 -73.63867188 -9.77734375 C-72.62353516 -9.75671875 -71.60839844 -9.73609375 -70.5625 -9.71484375 C-69.03399414 -9.70710938 -69.03399414 -9.70710938 -67.47460938 -9.69921875 C-59.93383971 -9.6192636 -59.93383971 -9.6192636 -57.625 -8.46484375 C-57.625 -7.47484375 -57.625 -6.48484375 -57.625 -5.46484375 C-56.635 -5.46484375 -55.645 -5.46484375 -54.625 -5.46484375 C-54.625 -4.80484375 -54.625 -4.14484375 -54.625 -3.46484375 C-54.11710937 -3.80257812 -53.60921875 -4.1403125 -53.0859375 -4.48828125 C-36.38259542 -15.31104597 -14.83200389 -13.37019581 0 0 Z M-56.625 -4.46484375 C-56.295 -3.14484375 -55.965 -1.82484375 -55.625 -0.46484375 C-55.295 -1.45484375 -54.965 -2.44484375 -54.625 -3.46484375 C-55.285 -3.79484375 -55.945 -4.12484375 -56.625 -4.46484375 Z " fill="#FFFFFF" transform="translate(440.625,83.46484375)"/>
<path d="M0 0 C0.72845123 -0.0049649 1.45690247 -0.00992981 2.20742798 -0.01504517 C4.62730845 -0.0297008 7.04712339 -0.03647405 9.46704102 -0.04199219 C11.1423391 -0.04774041 12.81763716 -0.05349818 14.49293518 -0.05926514 C18.00945341 -0.06978452 21.52594871 -0.07562118 25.04248047 -0.07910156 C29.55666529 -0.08459129 34.07054922 -0.1086254 38.58463955 -0.13707352 C42.04609574 -0.15566199 45.50747889 -0.16090344 48.96898079 -0.16243744 C50.63362335 -0.16547261 52.29826436 -0.17353004 53.9628582 -0.18662262 C56.2879743 -0.20360622 58.6123477 -0.2018223 60.9375 -0.1953125 C61.63004379 -0.20452728 62.32258759 -0.21374207 63.03611755 -0.22323608 C64.95237732 -0.20635986 64.95237732 -0.20635986 68.03344727 0.16113281 C70.50151766 3.86323841 70.36524401 6.75225535 70.34594727 11.03613281 C70.36206055 11.74382812 70.37817383 12.45152344 70.39477539 13.18066406 C70.39905443 17.77634919 69.76979292 20.49042523 67.03344727 24.16113281 C66.34250977 25.09828125 65.65157227 26.03542969 64.93969727 27.00097656 C64.14563477 28.02320312 63.35157227 29.04542969 62.53344727 30.09863281 C62.09548828 30.66364502 61.6575293 31.22865723 61.20629883 31.81079102 C57.63598373 36.40925043 54.03876106 40.98681033 50.43530273 45.55932617 C47.74442425 48.97546946 45.06663584 52.40130964 42.40063477 55.83691406 C41.77962891 56.63718018 41.15862305 57.43744629 40.51879883 58.26196289 C39.30889923 59.8222888 38.09986733 61.38328805 36.8918457 62.94506836 C33.68102963 67.08535554 30.4150379 71.15895063 27.03344727 75.16113281 C30.9613192 76.47042346 34.66405125 76.2252541 38.75219727 76.15332031 C40.50609777 76.13580777 42.26000438 76.11889913 44.01391602 76.10253906 C46.77922396 76.07153454 49.54422805 76.03595266 52.30932617 75.98974609 C54.97782229 75.94747947 57.64595839 75.92398992 60.31469727 75.90332031 C61.14287964 75.8846994 61.97106201 75.86607849 62.82434082 75.84689331 C68.61339982 75.82095341 68.61339982 75.82095341 70.75224304 77.55311584 C72.42200193 79.64880096 72.40705185 80.88191903 72.39672852 83.54003906 C72.39576172 84.7978418 72.39576172 84.7978418 72.39477539 86.08105469 C72.37060547 87.38913086 72.37060547 87.38913086 72.34594727 88.72363281 C72.34916992 89.59955078 72.35239258 90.47546875 72.35571289 91.37792969 C72.30053408 97.894046 72.30053408 97.894046 70.03344727 100.16113281 C67.57501804 100.35932563 65.22925128 100.43395239 62.76977539 100.41992188 C61.64761879 100.42517883 61.64761879 100.42517883 60.50279236 100.43054199 C58.02333367 100.43936371 55.54415899 100.4335087 53.06469727 100.42675781 C51.3459874 100.42810434 49.6272779 100.43004477 47.90856934 100.43255615 C44.30383686 100.43550801 40.6992034 100.43120782 37.09448242 100.421875 C32.46715667 100.4104804 27.8400629 100.41703955 23.21274567 100.42901993 C19.66292565 100.43623688 16.11316089 100.43395136 12.56333923 100.42876434 C10.85684685 100.42742739 9.1503495 100.42907716 7.44386292 100.43372345 C5.06147921 100.43878603 2.67947452 100.43108248 0.29711914 100.41992188 C-0.41255508 100.42397034 -1.12222931 100.4280188 -1.85340881 100.43218994 C-6.73802368 100.38966187 -6.73802368 100.38966187 -8.96655273 98.16113281 C-10.08818013 90.72376461 -11.10776408 82.00625363 -6.96655273 75.35253906 C-4.73156158 72.3499364 -2.20574333 69.62968628 0.38208008 66.9296875 C3.3012327 63.80338035 5.92432311 60.43608107 8.59594727 57.09863281 C9.68780158 55.75700367 10.78024319 54.41585226 11.87329102 53.07519531 C21.33475012 41.71130736 21.33475012 41.71130736 29.03344727 29.16113281 C30.02344727 28.50113281 31.01344727 27.84113281 32.03344727 27.16113281 C31.53844727 26.17113281 31.53844727 26.17113281 31.03344727 25.16113281 C18.82344727 25.16113281 6.61344727 25.16113281 -5.96655273 25.16113281 C-6.62655273 23.84113281 -7.28655273 22.52113281 -7.96655273 21.16113281 C-8.95655273 20.83113281 -9.94655273 20.50113281 -10.96655273 20.16113281 C-10.30655273 20.16113281 -9.64655273 20.16113281 -8.96655273 20.16113281 C-9.79988607 17.99446615 -9.79988607 17.99446615 -11.96655273 17.16113281 C-11.96655273 11.88113281 -11.96655273 6.60113281 -11.96655273 1.16113281 C-10.64655273 1.16113281 -9.32655273 1.16113281 -7.96655273 1.16113281 C-6.06448399 -0.74093593 -2.58900684 0.00416683 0 0 Z " fill="#FFFFFF" transform="translate(753.966552734375,73.8388671875)"/>
<path d="M0 0 C0.66 -0.33 1.32 -0.66 2 -1 C4.34023315 -0.71917202 6.67305036 -0.37531446 9 0 C9.70382812 0.061875 10.40765625 0.12375 11.1328125 0.1875 C16.57715998 0.66965623 16.57715998 0.66965623 19 2.5625 C19.495 3.2740625 19.495 3.2740625 20 4 C19.67 4.33 19.34 4.66 19 5 C18.91314397 6.56172745 18.89297781 8.12729344 18.90234375 9.69140625 C18.90556641 10.63564453 18.90878906 11.57988281 18.91210938 12.55273438 C18.92048828 13.54595703 18.92886719 14.53917969 18.9375 15.5625 C18.94201172 16.55958984 18.94652344 17.55667969 18.95117188 18.58398438 C18.96299993 21.05604849 18.97948151 23.52799518 19 26 C20.02939697 26.029729 20.02939697 26.029729 21.07958984 26.06005859 C24.17845779 26.15510945 27.27663294 26.26486847 30.375 26.375 C31.99535156 26.42140625 31.99535156 26.42140625 33.6484375 26.46875 C35.1953125 26.52675781 35.1953125 26.52675781 36.7734375 26.5859375 C38.20308838 26.63306885 38.20308838 26.63306885 39.66162109 26.68115234 C42 27 42 27 44 29 C44.59610698 32.2783898 44.65238652 35.61224478 44.8125 38.9375 C44.90821289 40.31711914 44.90821289 40.31711914 45.00585938 41.72460938 C45.05162109 42.60826172 45.09738281 43.49191406 45.14453125 44.40234375 C45.21184448 45.61651978 45.21184448 45.61651978 45.28051758 46.85522461 C45 49 45 49 42 52 C34.41 51.67 26.82 51.34 19 51 C19 67.17 19 83.34 19 100 C19.99 100.495 19.99 100.495 21 101 C21.99 101.99 21.99 101.99 23 103 C27.60332151 104.04004317 32.47314837 104.50895054 37 103 C37.66 102.34 38.32 101.68 39 101 C39 101.66 39 102.32 39 103 C39.639375 103.144375 40.27875 103.28875 40.9375 103.4375 C43 104 43 104 44 105 C44.27818549 108.2834318 44.23177691 111.58117732 44.25 114.875 C44.270625 115.79925781 44.29125 116.72351563 44.3125 117.67578125 C44.32023438 119.00802734 44.32023438 119.00802734 44.328125 120.3671875 C44.3374707 121.18300293 44.34681641 121.99881836 44.35644531 122.83935547 C43.91420353 125.52006766 43.14135671 126.37470168 41 128 C38.31640625 128.63671875 38.31640625 128.63671875 35 129 C33.73027344 129.15082031 32.46054687 129.30164063 31.15234375 129.45703125 C19.31877896 130.54819812 9.51923152 128.99436153 -1 123 C-4.15992958 119.56654576 -5.84827698 115.33217078 -7.81640625 111.14453125 C-8.81493384 108.85629026 -8.81493384 108.85629026 -11 108 C-11 107.01 -11 106.02 -11 105 C-10.34 105 -9.68 105 -9 105 C-9.165 103.741875 -9.33 102.48375 -9.5 101.1875 C-9.82158241 98.73543415 -10 96.48349306 -10 94 C-10.15470685 92.16561872 -10.32267742 90.33233337 -10.5 88.5 C-11.27027027 80.54054054 -11.27027027 80.54054054 -10 78 C-9.92896825 74.45729153 -10.00333083 70.92556673 -10.0625 67.3828125 C-10.01214711 64.65746221 -9.82569555 62.56739709 -9 60 C-9.66 60 -10.32 60 -11 60 C-10.67 57.69 -10.34 55.38 -10 53 C-12.99480917 52.1276588 -15.63575911 51.89170234 -18.75 51.9375 C-20.1525 51.958125 -21.555 51.97875 -23 52 C-23.99 49.36 -24.98 46.72 -26 44 C-26.33 44 -26.66 44 -27 44 C-27.1953125 37.9453125 -27.1953125 37.9453125 -27 36 C-26.34 35.34 -25.68 34.68 -25 34 C-25.33 33.34 -25.66 32.68 -26 32 C-25.34 32 -24.68 32 -24 32 C-23.855625 31.360625 -23.71125 30.72125 -23.5625 30.0625 C-23 28 -23 28 -22 27 C-20.15108054 26.76636119 -18.29511969 26.58696365 -16.4375 26.4375 C-15.42558594 26.35371094 -14.41367187 26.26992187 -13.37109375 26.18359375 C-12.58863281 26.12300781 -11.80617188 26.06242187 -11 26 C-10.1276588 23.00519083 -9.89170234 20.36424089 -9.9375 17.25 C-9.94652344 16.45078125 -9.95554687 15.6515625 -9.96484375 14.828125 C-9.97644531 14.22484375 -9.98804688 13.6215625 -10 13 C-10.33 13 -10.66 13 -11 13 C-11.49058738 9.87250544 -11.68965703 7.10604932 -11 4 C-7.73336119 0.59629942 -4.59918751 -1.5330625 0 0 Z " fill="#FFFFFF" transform="translate(689,47)"/>
<path d="M0 0 C0.09516211 2.7388842 0.12554594 5.45247941 0.11352539 8.19165039 C0.11367142 9.05011063 0.11381744 9.90857086 0.1139679 10.79304504 C0.11326847 13.64460738 0.1054747 16.49610525 0.09765625 19.34765625 C0.09579218 21.31920842 0.09436822 23.29076105 0.09336853 25.26231384 C0.08954251 30.46226267 0.07971152 35.66218375 0.06866455 40.86212158 C0.05845222 46.16393661 0.05387129 51.4657561 0.04882812 56.76757812 C0.03808933 67.17839763 0.02101191 77.58919651 0 88 C0.66 88.33 1.32 88.66 2 89 C1.34 89 0.68 89 0 89 C0.00444122 89.56962967 0.00888245 90.13925934 0.01345825 90.72615051 C0.05765436 96.64691666 0.0878509 102.56763606 0.10986328 108.48852539 C0.11993006 110.69915673 0.13358448 112.90977472 0.15087891 115.12036133 C0.17509738 118.29511811 0.18647627 121.46969906 0.1953125 124.64453125 C0.20563507 125.63524124 0.21595764 126.62595123 0.22659302 127.64668274 C0.22674408 128.56741074 0.22689514 129.48813873 0.22705078 130.43676758 C0.231492 131.2472908 0.23593323 132.05781403 0.24050903 132.89289856 C0 135 0 135 -2 138 C-10.09326095 139.89416746 -18.86325415 139.4465326 -27 138 C-28.94757677 130.92264512 -29.17280944 124.17220835 -29.01367188 116.89086914 C-28.9464134 113.393028 -29.08028552 110.3695734 -30 107 C-29.505 106.01 -29.505 106.01 -29 105 C-28.97149326 102.63671707 -29.01248267 100.27246936 -29.0859375 97.91015625 C-29.11779648 96.85966347 -29.11779648 96.85966347 -29.15029907 95.78794861 C-29.19657484 94.30589651 -29.2455043 92.82392526 -29.296875 91.34204102 C-29.37456471 89.07520084 -29.44180365 86.80822263 -29.5078125 84.54101562 C-29.55406008 83.10154221 -29.60091499 81.66208814 -29.6484375 80.22265625 C-29.71297119 78.25437866 -29.71297119 78.25437866 -29.77880859 76.24633789 C-29.86433386 72.98865406 -29.86433386 72.98865406 -31 70 C-30.70264833 68.65818374 -30.36678881 67.32452061 -30 66 C-29.92752926 63.14084801 -29.90781346 60.30731453 -29.9375 57.44921875 C-29.94614935 55.71044974 -29.95469012 53.97168018 -29.96313477 52.23291016 C-29.97245529 50.87253632 -29.97245529 50.87253632 -29.98196411 49.48468018 C-30.06444417 36.69287504 -30.13510025 23.90701853 -29.5625 11.125 C-29.52318359 10.21322998 -29.48386719 9.30145996 -29.44335938 8.36206055 C-29.27330302 5.04105615 -29.05663979 2.16991937 -28 -1 C-24.67687356 -2.66156322 -20.97059949 -2.46923631 -17.3125 -2.6875 C-16.52166016 -2.74744141 -15.73082031 -2.80738281 -14.91601562 -2.86914062 C-3.55404863 -3.55404863 -3.55404863 -3.55404863 0 0 Z " fill="#FFFFFF" transform="translate(608,36)"/>
<path d="M0 0 C2.73204257 4.6605432 2.12303558 10.29852912 1.8125 15.5 C1.74546875 16.80324219 1.6784375 18.10648438 1.609375 19.44921875 C1.0625 22.8125 1.0625 22.8125 -0.02734375 24.73828125 C-3.02503374 26.42409873 -5.84465966 26.23166106 -9.25 26.3125 C-16.29172559 26.48066061 -20.68231703 27.50606287 -25.6875 32.625 C-30.45248961 39.37540195 -30.25616279 45.86272489 -30.31640625 53.8515625 C-30.33340073 55.0099765 -30.3503952 56.1683905 -30.36790466 57.36190796 C-30.4209176 61.05371695 -30.4612813 64.74551561 -30.5 68.4375 C-30.54396789 72.13656885 -30.59069071 75.83555214 -30.64280701 79.53451538 C-30.67469211 81.83378658 -30.70160441 84.13313325 -30.72303772 86.43252563 C-30.73652756 87.47395721 -30.7500174 88.51538879 -30.76391602 89.58837891 C-30.77342789 90.50293854 -30.78293976 91.41749817 -30.79273987 92.35977173 C-30.92933977 94.67423804 -31.16440896 96.62723905 -31.9375 98.8125 C-34.54701236 100.11725618 -36.46451285 99.92551572 -39.3828125 99.91015625 C-40.99736328 99.90532227 -40.99736328 99.90532227 -42.64453125 99.90039062 C-43.77246094 99.89201172 -44.90039062 99.88363281 -46.0625 99.875 C-47.19816406 99.87048828 -48.33382812 99.86597656 -49.50390625 99.86132812 C-52.31515638 99.84951615 -55.1263023 99.83304507 -57.9375 99.8125 C-60.78326784 90.7060429 -61.09712706 82.0503143 -61.0625 72.5625 C-61.06636719 71.48742187 -61.07023438 70.41234375 -61.07421875 69.3046875 C-61.07292969 68.27085937 -61.07164062 67.23703125 -61.0703125 66.171875 C-61.06918457 65.23827148 -61.06805664 64.30466797 -61.06689453 63.34277344 C-60.94779987 61.01391101 -60.51626919 59.05760892 -59.9375 56.8125 C-60.185 55.8534375 -60.185 55.8534375 -60.4375 54.875 C-61.06930761 52.2687936 -60.58081611 50.38576442 -59.9375 47.8125 C-60.5975 47.4825 -61.2575 47.1525 -61.9375 46.8125 C-61.980221 45.14638095 -61.97813832 43.47867115 -61.9375 41.8125 C-61.4425 41.3175 -61.4425 41.3175 -60.9375 40.8125 C-59.99373566 36.42081884 -59.99373566 36.42081884 -60.40625 32.02734375 C-61.15708674 28.89701706 -61.06920964 25.90141568 -61.0625 22.6875 C-61.06507813 21.44742188 -61.06765625 20.20734375 -61.0703125 18.9296875 C-60.9375 15.8125 -60.9375 15.8125 -59.9375 13.8125 C-60.5975 13.4825 -61.2575 13.1525 -61.9375 12.8125 C-61.2775 11.8225 -60.6175 10.8325 -59.9375 9.8125 C-60.288125 9.214375 -60.63875 8.61625 -61 8 C-61.9375 5.8125 -61.9375 5.8125 -60.9375 2.8125 C-60.2775 3.1425 -59.6175 3.4725 -58.9375 3.8125 C-58.2775 2.4925 -57.6175 1.1725 -56.9375 -0.1875 C-53.68780231 -0.30388036 -50.4386417 -0.37480581 -47.1875 -0.4375 C-46.26710937 -0.47101563 -45.34671875 -0.50453125 -44.3984375 -0.5390625 C-37.5948215 -0.63766563 -37.5948215 -0.63766563 -34.359375 1.578125 C-32.99511546 3.72196141 -32.29511689 5.30918174 -31.9375 7.8125 C-31.43863281 7.34199219 -30.93976563 6.87148437 -30.42578125 6.38671875 C-22.80244632 -0.22382124 -9.64596968 -5.91204593 0 0 Z " fill="#FFFFFF" transform="translate(203.9375,74.1875)"/>
<path d="M0 0 C0.92425781 -0.00257812 1.84851563 -0.00515625 2.80078125 -0.0078125 C3.76371094 -0.00007813 4.72664063 0.00765625 5.71875 0.015625 C7.16314453 0.00402344 7.16314453 0.00402344 8.63671875 -0.0078125 C9.56097656 -0.00523438 10.48523438 -0.00265625 11.4375 0 C12.28248047 0.00225586 13.12746094 0.00451172 13.99804688 0.00683594 C16.21875 0.265625 16.21875 0.265625 19.21875 2.265625 C19.40625 4.890625 19.40625 4.890625 19.21875 7.265625 C19.87875 7.595625 20.53875 7.925625 21.21875 8.265625 C21.05543686 9.08763397 20.89212372 9.90964294 20.72386169 10.75656128 C20.16108311 14.66624291 20.10105638 18.4726822 20.13696289 22.41064453 C20.14156273 23.60201019 20.14156273 23.60201019 20.14625549 24.81744385 C20.15338057 26.53290962 20.16275466 28.24836725 20.17415047 29.96380997 C20.19160265 32.67899366 20.20185882 35.39411803 20.21006775 38.10934448 C20.23447296 45.82604575 20.27018083 53.54266653 20.31469727 61.25927734 C20.3414669 65.98645377 20.35851643 70.71358458 20.36956596 75.4408226 C20.37577446 77.24057584 20.38577816 79.04032014 20.39964485 80.84003067 C20.41884549 83.35321117 20.42575453 85.86615061 20.42993164 88.37939453 C20.44307404 89.49382431 20.44307404 89.49382431 20.45648193 90.63076782 C20.44943674 94.34083648 20.28124068 97.11564735 18.21875 100.265625 C14.3021457 100.3237216 10.38565237 100.35925393 6.46875 100.390625 C5.35757812 100.40738281 4.24640625 100.42414063 3.1015625 100.44140625 C1.49667969 100.45107422 1.49667969 100.45107422 -0.140625 100.4609375 C-1.12514648 100.47141113 -2.10966797 100.48188477 -3.12402344 100.49267578 C-5.87394936 100.25770416 -7.48925991 99.78150893 -9.78125 98.265625 C-10.53125 96.140625 -10.53125 96.140625 -10.78125 94.265625 C-9.29625 93.770625 -9.29625 93.770625 -7.78125 93.265625 C-7.87462381 87.17810812 -7.98068093 81.0909966 -8.09863281 75.00390625 C-8.13697685 72.93202819 -8.17182005 70.86008231 -8.203125 68.78808594 C-8.24865809 65.81420613 -8.30667118 62.84079538 -8.3671875 59.8671875 C-8.37873871 58.93693756 -8.39028992 58.00668762 -8.40219116 57.04824829 C-8.42206085 56.18750702 -8.44193054 55.32676575 -8.46240234 54.43994141 C-8.47572601 53.68049225 -8.48904968 52.92104309 -8.5027771 52.13858032 C-8.62742052 50.0225024 -8.62742052 50.0225024 -10.78125 48.265625 C-10.53014902 45.92201585 -10.19559251 43.58594305 -9.78125 41.265625 C-9.78125 40.605625 -9.78125 39.945625 -9.78125 39.265625 C-9.45125 38.275625 -9.12125 37.285625 -8.78125 36.265625 C-8.73469956 33.91191861 -8.74355046 31.55698979 -8.78125 29.203125 C-8.82576924 22.92518206 -8.73747889 16.66328966 -8.46875 10.390625 C-8.44619141 9.61195068 -8.42363281 8.83327637 -8.40039062 8.03100586 C-8.29296875 5.8359375 -8.29296875 5.8359375 -7.78125 2.265625 C-4.57310112 0.12685908 -3.6935427 0.00986072 0 0 Z " fill="#FFFFFF" transform="translate(320.78125,73.734375)"/>
<path d="M0 0 C1.01513672 -0.03738281 2.03027344 -0.07476562 3.07617188 -0.11328125 C4.05005859 -0.12488281 5.02394531 -0.13648437 6.02734375 -0.1484375 C6.9205835 -0.16825684 7.81382324 -0.18807617 8.73413086 -0.20849609 C11.0625 0.375 11.0625 0.375 12.68475342 2.37705994 C14.46766166 6.25662103 14.47502248 9.74120083 14.43481445 13.92553711 C14.43846512 14.7749437 14.44211578 15.62435028 14.44587708 16.49949646 C14.45396705 19.30065047 14.44038422 22.10122312 14.42578125 24.90234375 C14.42526241 26.85380554 14.42578104 28.80526785 14.42729187 30.75672913 C14.42720221 34.84465346 14.41678685 38.93238032 14.39868164 43.02026367 C14.37600989 48.25357582 14.37544842 53.48659913 14.38219929 58.71994686 C14.38554527 62.74946141 14.37889705 66.77891044 14.36907005 70.80841255 C14.3652275 72.73767313 14.36406591 74.66694101 14.3656559 76.59620476 C14.36602786 79.29596647 14.35336906 81.99536183 14.3371582 84.69506836 C14.33963562 85.48850647 14.34211304 86.28194458 14.34466553 87.09942627 C14.30230146 91.53308068 13.95616505 95.27424365 12.0625 99.375 C6.81204273 101.75004801 1.85650855 101.54317844 -3.75 101.125 C-4.51248047 101.08503906 -5.27496094 101.04507813 -6.06054688 101.00390625 C-11.67600668 100.63649332 -11.67600668 100.63649332 -13.9375 98.375 C-14.31640625 95.4765625 -14.31640625 95.4765625 -14.5 92 C-14.79397335 86.61850511 -14.79397335 86.61850511 -15.9375 81.375 C-15.2775 81.375 -14.6175 81.375 -13.9375 81.375 C-13.96779297 80.52268799 -13.99808594 79.67037598 -14.02929688 78.79223633 C-14.14181472 75.61468898 -14.25354355 72.43711512 -14.36474609 69.25952148 C-14.41293477 67.88711459 -14.46143325 66.51471854 -14.51025391 65.14233398 C-14.58057806 63.16392891 -14.64967696 61.1854804 -14.71875 59.20703125 C-14.76064453 58.01827393 -14.80253906 56.8295166 -14.84570312 55.60473633 C-14.90282701 53.59491752 -14.92370412 51.58332327 -14.88867188 49.57299805 C-14.78190741 47.33015297 -14.78190741 47.33015297 -15.9375 45.375 C-15.2775 45.375 -14.6175 45.375 -13.9375 45.375 C-13.98293945 44.19695801 -13.98293945 44.19695801 -14.02929688 42.99511719 C-14.16771219 39.37183018 -14.30262419 35.74842042 -14.4375 32.125 C-14.50904297 30.27261719 -14.50904297 30.27261719 -14.58203125 28.3828125 C-14.71720433 24.71382893 -14.83395123 21.04500738 -14.9375 17.375 C-14.97101562 16.23353516 -15.00453125 15.09207031 -15.0390625 13.91601562 C-15.05710937 12.85576172 -15.07515625 11.79550781 -15.09375 10.703125 C-15.11244141 9.76887695 -15.13113281 8.83462891 -15.15039062 7.87207031 C-14.92273772 5.2018479 -14.38371527 3.61777341 -12.9375 1.375 C-9.0461062 -0.5706969 -4.28072604 0.05956735 0 0 Z " fill="#FFFFFF" transform="translate(640.9375,73.625)"/>
<path d="M0 0 C13.18603421 0.4267325 13.18603421 0.4267325 18 5 C21.27224774 9.05429437 22.62298166 12.80353279 22.3203125 18.01953125 C21.34257015 24.06484066 18.59556487 28.09376986 14 32 C8.55216979 33.8159434 2.74530198 33.99756613 -2.6875 32.0234375 C-8.69731776 28.88369296 -8.69731776 28.88369296 -9.6796875 26.015625 C-9.78539062 25.35046875 -9.89109375 24.6853125 -10 24 C-10.33 23.01 -10.66 22.02 -11 21 C-11.36826224 15.38400084 -11.21556007 11.82334011 -8 7 C-6.09273475 5.07239059 -4.21705255 3.60382525 -2 2 C-1.34 2 -0.68 2 0 2 C0 1.34 0 0.68 0 0 Z " fill="#FFFFFF" transform="translate(635,31)"/>
<path d="M0 0 C0.66 0.66 1.32 1.32 2 2 C3.25752325 2.45526228 4.53090141 2.86772585 5.8125 3.25 C11.39910201 5.2676657 13.80834559 8.50835896 16.375 13.875 C17.5126929 19.5634645 16.96231659 23.99632882 13.8125 28.8125 C10.68220325 32.70758516 7.64126167 34.6985055 2.5703125 35.27734375 C-2.47720773 35.46456631 -5.94642 35.26538389 -10 32 C-11.093125 31.360625 -12.18625 30.72125 -13.3125 30.0625 C-15.56315175 28.15988718 -15.96999212 27.17230332 -16.484375 24.21875 C-16.67014348 16.71370336 -15.4365794 12.13274494 -10.8125 6.1875 C-7.07669663 3.28187516 -4.67246478 3.23758296 0 3 C0 2.01 0 1.02 0 0 Z " fill="#FFFFFF" transform="translate(326,29)"/>
</svg>
