<svg xmlns="http://www.w3.org/2000/svg" width="99.998" height="31.637" viewBox="0 0 99.998 31.637"><path d="M229.848,276.989l-3.964-3.964-6.6,6.7-6.6-6.7-3.964,3.964,6.631,6.723-6.631,6.723,3.964,3.964,6.6-6.7,6.6,6.7,3.964-3.964-6.631-6.723Z" transform="translate(-208.714 -262.785)" fill="#7e1fe0"/><path d="M319.054,236.148a3.777,3.777,0,0,0-.976,2.611l.025,2.553h6.448v4.875H318.1V260.58H312V246.186h-3.339v-4.875H312V237.2a8.006,8.006,0,0,1,7.842-7.676,15.832,15.832,0,0,1,5.305.744l-.846,5.322S320.768,234.433,319.054,236.148Z" transform="translate(-285.136 -229.519)" fill="#221f20"/><path d="M402.956,278.635l-.269,6.141h-1.113c-4.175-.024-6.7,2.58-6.64,6.274v6.968h-6.141V278.75h6.141v2.162c1.576-2.056,3.8-2.431,6.64-2.431A5.71,5.71,0,0,1,402.956,278.635Z" transform="translate(-346.407 -266.956)" fill="#221f20"/><path d="M474.336,288.959H460.211a4.994,4.994,0,0,0,1.5,2.725,3.834,3.834,0,0,0,2.648,1,4.314,4.314,0,0,0,4.107-2.226l5.451,1.113a9.187,9.187,0,0,1-3.7,4.51,10.987,10.987,0,0,1-5.854,1.516,9.988,9.988,0,0,1-7.216-2.859,10.594,10.594,0,0,1,0-14.681,10,10,0,0,1,7.254-2.879,9.609,9.609,0,0,1,7.024,2.8,10.194,10.194,0,0,1,2.917,7.408ZM461.9,282.972a4.03,4.03,0,0,0-1.574,2.226h7.945a4.085,4.085,0,0,0-1.459-2.265,3.952,3.952,0,0,0-2.418-.768A4.263,4.263,0,0,0,461.9,282.972Z" transform="translate(-396.408 -265.959)" fill="#221f20"/><path d="M568.1,288.959H553.978a4.992,4.992,0,0,0,1.5,2.725,3.833,3.833,0,0,0,2.648,1,4.314,4.314,0,0,0,4.107-2.226l5.45,1.113a9.185,9.185,0,0,1-3.7,4.51,10.987,10.987,0,0,1-5.853,1.516,9.987,9.987,0,0,1-7.216-2.859,10.594,10.594,0,0,1,0-14.681,10,10,0,0,1,7.254-2.879,9.609,9.609,0,0,1,7.024,2.8,10.194,10.194,0,0,1,2.917,7.408Zm-12.436-5.988a4.031,4.031,0,0,0-1.574,2.226h7.945a4.085,4.085,0,0,0-1.459-2.265,3.951,3.951,0,0,0-2.418-.768A4.264,4.264,0,0,0,555.667,282.972Z" transform="translate(-468.105 -265.959)" fill="#221f20"/></svg>